<svg width="60" height="60" viewBox="0 0 60 60" fill="none" xmlns="http://www.w3.org/2000/svg">
<path d="M29.9905 3.20927C23.4641 3.20309 17.1488 5.52124 12.1763 9.74824C7.20375 13.9753 3.89903 19.8349 2.85425 26.277C1.8095 32.7192 3.09298 39.323 6.47473 44.9047C9.85648 50.4867 15.1155 54.682 21.3093 56.7387C22.6801 56.9775 23.1148 56.1727 23.1148 55.4467C23.1148 54.7897 23.1291 52.97 23.1148 50.6702C15.4725 52.3277 13.8939 47.052 13.8939 47.052C13.39 45.3922 12.3091 43.9675 10.8465 43.035C8.3532 41.33 11.0328 41.3632 11.0328 41.3632C11.9033 41.4827 12.735 41.7997 13.4643 42.2897C14.1936 42.7797 14.8013 43.4302 15.2408 44.191C15.6126 44.8685 16.1151 45.4655 16.7192 45.9477C17.3232 46.4297 18.0169 46.7872 18.76 46.9997C19.5031 47.212 20.2809 47.2747 21.0485 47.1847C21.8161 47.0945 22.5581 46.853 23.2318 46.474C23.3585 45.0857 23.9767 43.7882 24.9752 42.8155C18.8781 42.118 12.4657 39.7632 12.4657 29.236C12.427 26.507 13.4404 23.8677 15.2957 21.866C14.455 19.498 14.5507 16.8984 15.5632 14.5986C15.5632 14.5986 17.8726 13.8607 23.1148 17.4167C27.617 16.1813 32.3688 16.1813 36.8708 17.4167C42.125 13.8631 44.4153 14.5986 44.4153 14.5986C45.428 16.898 45.5255 19.4972 44.6875 21.866C46.5433 23.869 47.5553 26.5105 47.5128 29.2407C47.5128 39.7967 41.0908 42.1157 34.9723 42.7915C35.6295 43.4517 36.1373 44.2455 36.4615 45.119C36.7858 45.9925 36.9188 46.9252 36.8518 47.8545V55.4585C36.8518 56.1917 37.296 57.0037 38.6908 56.7387C44.886 54.6815 50.146 50.4847 53.5278 44.9007C56.9093 39.317 58.1915 32.711 57.1443 26.2677C56.097 19.8241 52.7888 13.9644 47.8128 9.73892C42.8368 5.51344 36.5185 3.19854 29.9905 3.20927Z" fill="#F4F4F4"/>
</svg>
