<svg width="60" height="60" viewBox="0 0 60 60" fill="none" xmlns="http://www.w3.org/2000/svg">
<path fill-rule="evenodd" clip-rule="evenodd" d="M12.5 2.5C6.97715 2.5 2.5 6.97715 2.5 12.5V47.5C2.5 53.0228 6.97715 57.5 12.5 57.5H47.5C53.0228 57.5 57.5 53.0228 57.5 47.5V12.5C57.5 6.97715 53.0228 2.5 47.5 2.5H12.5ZM15.5114 19.7727C17.8648 19.7727 19.7727 17.8648 19.7727 15.5114C19.7727 13.1579 17.8648 11.25 15.5114 11.25C13.1579 11.25 11.25 13.1579 11.25 15.5114C11.25 17.8648 13.1579 19.7727 15.5114 19.7727ZM19.7727 48.75V23.1818H11.25V48.75H19.7727ZM30.8523 23.1818H23.1818V48.75H30.8523V33.326C31.8405 31.719 33.545 30 35.966 30C39.375 30 40.2273 33.409 40.2273 35.1137V48.75H48.75V35.1137C48.75 30.546 46.7563 23.1818 39.375 23.1818C34.6802 23.1818 32.0735 24.8946 30.8523 26.499V23.1818Z" fill="#F4F4F4"/>
</svg>
